<svg xmlns="http://www.w3.org/2000/svg" version="1.1" xmlns:xlink="http://www.w3.org/1999/xlink" xmlns:svgjs="http://svgjs.dev/svgjs" width="1500" height="1500" viewBox="0 0 1500 1500"><rect width="1500" height="1500" fill="#ffffff"></rect><g transform="matrix(0.6666666666666666,0,0,0.6666666666666666,249.39393939393938,544.6242362626576)"><svg viewBox="0 0 396 162" data-background-color="#00415a" preserveAspectRatio="xMidYMid meet" height="613" width="1500" xmlns="http://www.w3.org/2000/svg" xmlns:xlink="http://www.w3.org/1999/xlink"><g id="tight-bounds" transform="matrix(1,0,0,1,0.2400000000000091,0.41323097581434354)"><svg viewBox="0 0 395.52 161.1735380483713" height="161.1735380483713" width="395.52"><g><svg viewBox="0 0 642.5884432745497 261.85339024968226" height="161.1735380483713" width="395.52"><g transform="matrix(1,0,0,1,281.50657919880825,7.326695124841137)"><svg viewBox="0 0 361.08186407574146 247.2" height="247.2" width="361.08186407574146"><g id="textblocktransform"><svg viewBox="0 0 361.08186407574146 247.2" height="247.2" width="361.08186407574146" id="textblock"><g><svg viewBox="0 0 361.08186407574146 247.2" height="247.2" width="361.08186407574146"><g transform="matrix(1,0,0,1,0,0)"><svg width="361.08186407574146" viewBox="2.3416666666699997 -34.7 51.708333333329996 35.400000000000006" height="247.2" data-palette-color="#ffffff"><path d="M14.35 0.4L10.35 0.4Q9.55 0.4 9.2-0.73 8.85-1.85 8.85-3.2L8.85-3.2Q8.85-4.55 9.03-6.23 9.2-7.9 9.55-10.8L9.55-10.8 11.7-29.8 5-28.35Q4.4-28.25 3.98-28.18 3.55-28.1 3.35-28.1L3.35-28.1Q2.8-28.1 2.55-28.45 2.3-28.8 2.35-29.3L2.35-29.3Q2.4-30.55 2.73-31.6 3.05-32.65 3.55-33.33 4.05-34 4.65-34L4.65-34 15.4-34Q19.25-34 21.43-34.15 23.6-34.3 24.68-34.43 25.75-34.55 26.3-34.55L26.3-34.55Q26.8-34.55 27-34.35 27.2-34.15 27.25-33.55L27.25-33.55Q27.3-32.55 26.98-31.45 26.65-30.35 26.13-29.58 25.6-28.8 25.05-28.8L25.05-28.8Q24.7-28.8 24-28.93 23.3-29.05 22.4-29.15L22.4-29.15 17.65-29.8 14.35 0.4ZM23.15 0.7L23.15 0.7Q21.8 0.7 21.8-0.15L21.8-0.15Q21.8-0.55 22.2-1.45L22.2-1.45 37.05-31.4Q37.4-32.15 38.5-32.9 39.6-33.65 41.15-34.18 42.7-34.7 44.35-34.7L44.35-34.7Q44.75-34.7 45.12-34.45 45.5-34.2 45.65-33.25L45.65-33.25Q46.5-27.5 47.7-21.7 48.9-15.9 50.45-10.35L50.45-10.35Q51.15-8 51.65-6.55 52.15-5.1 52.65-4.35L52.65-4.35Q53.2-3.6 53.62-3.13 54.05-2.65 54.05-2.2L54.05-2.2Q54.05-1.7 53.47-1.2 52.9-0.7 52.05-0.3 51.2 0.1 50.3 0.35 49.4 0.6 48.75 0.6L48.75 0.6Q47.65 0.6 46.5-1.38 45.35-3.35 44.25-8.5L44.25-8.5 39.9-29.35 40.85-29.95 31.1-9.45Q30.45-8.05 30.17-7.1 29.9-6.15 29.85-5.38 29.8-4.6 29.65-3.6L29.65-3.6Q29.55-2.65 28.7-1.88 27.85-1.1 26.72-0.53 25.6 0.05 24.6 0.38 23.6 0.7 23.15 0.7ZM48.05-9.5L29.45-9.5 29.45-13.25 48.05-13.25 48.05-9.5Z" opacity="1" transform="matrix(1,0,0,1,0,0)" fill="#000000" class="wordmark-text-0" data-fill-palette-color="primary" id="text-0"></path></svg></g></svg></g></svg></g></svg></g><g><svg viewBox="0 0 223.14859199880823 261.85339024968226" height="261.85339024968226" width="223.14859199880823"><g><svg xmlns="http://www.w3.org/2000/svg" xmlns:xlink="http://www.w3.org/1999/xlink" version="1.0" x="0" y="0" viewBox="1.1970982056690094 8.292945284715056 70.34058304247895 82.54105471528494" enable-background="new -12.573 0.418 98 98" xml:space="preserve" height="261.85339024968226" width="223.14859199880823" class="icon-icon-0" data-fill-palette-color="accent" id="icon-0"><path d="M60.809 9.303C47.474 5.792 47.125 12.505 36.189 13.217 25.254 12.505 24.905 5.792 11.57 9.303-13.371 15.869 13.333 90.834 22.448 90.834S26.615 68.379 37.345 68.379 44.459 90.834 52.463 90.834 85.75 15.869 60.809 9.303M9.792 17.082C12.701 12.86 17.023 13.625 18.347 13.627 20.712 13.644 22.001 14.249 24.362 15.344 26.803 16.497 30.009 17.98 34.705 18.456A9.5 9.5 0 0 1 33.712 20.549C30.853 25.274 23.041 28.687 13.735 28.646 12.086 28.648 9.768 28.544 8.062 28.335 7.4 23.398 8.421 19.069 9.792 17.082" fill="#000000" data-fill-palette-color="accent"></path></svg></g></svg></g></svg></g><defs></defs></svg><rect width="395.52" height="161.1735380483713" fill="none" stroke="none" visibility="hidden"></rect></g></svg></g></svg>