<svg xmlns="http://www.w3.org/2000/svg" version="1.1" xmlns:xlink="http://www.w3.org/1999/xlink" xmlns:svgjs="http://svgjs.dev/svgjs" width="1500" height="1500" viewBox="0 0 1500 1500"><rect width="1500" height="1500" fill="#ffffff"></rect><g transform="matrix(0.6666666666666666,0,0,0.6666666666666666,249.39393939393943,670.3800846411817)"><svg viewBox="0 0 396 63" data-background-color="#00415a" preserveAspectRatio="xMidYMid meet" height="238" width="1500" xmlns="http://www.w3.org/2000/svg" xmlns:xlink="http://www.w3.org/1999/xlink"><g id="tight-bounds" transform="matrix(1,0,0,1,0.2400000000000091,0.11378992188375037)"><svg viewBox="0 0 395.52 62.77242015623249" height="62.77242015623249" width="395.52"><g><svg viewBox="0 0 465.0775226846844 73.81179626613763" height="62.77242015623249" width="395.52"><g transform="matrix(1,0,0,1,69.55752268468443,22.808916416846962)"><svg viewBox="0 0 395.52 28.19396343244371" height="28.19396343244371" width="395.52"><g id="textblocktransform"><svg viewBox="0 0 395.52 28.19396343244371" height="28.19396343244371" width="395.52" id="textblock"><g><svg viewBox="0 0 395.52 28.19396343244371" height="28.19396343244371" width="395.52"><g transform="matrix(1,0,0,1,0,0)"><svg width="395.52" viewBox="2.3416666666699997 -34.8 643.13833333333 45.849999999999994" height="28.19396343244371" data-palette-color="#ffffff"><path d="M14.35 0.4L10.35 0.4Q9.55 0.4 9.2-0.73 8.85-1.85 8.85-3.2L8.85-3.2Q8.85-4.55 9.03-6.23 9.2-7.9 9.55-10.8L9.55-10.8 11.7-29.8 5-28.35Q4.4-28.25 3.98-28.18 3.55-28.1 3.35-28.1L3.35-28.1Q2.8-28.1 2.55-28.45 2.3-28.8 2.35-29.3L2.35-29.3Q2.4-30.55 2.73-31.6 3.05-32.65 3.55-33.33 4.05-34 4.65-34L4.65-34 15.4-34Q19.25-34 21.43-34.15 23.6-34.3 24.68-34.43 25.75-34.55 26.3-34.55L26.3-34.55Q26.8-34.55 27-34.35 27.2-34.15 27.25-33.55L27.25-33.55Q27.3-32.55 26.98-31.45 26.65-30.35 26.13-29.58 25.6-28.8 25.05-28.8L25.05-28.8Q24.7-28.8 24-28.93 23.3-29.05 22.4-29.15L22.4-29.15 17.65-29.8 14.35 0.4ZM28.7 0.8L28.7 0.8Q25.9 0.8 24.7-1.48 23.5-3.75 23.5-7.85L23.5-7.85Q23.5-11.5 24.57-14.55 25.65-17.6 27.5-19.83 29.35-22.05 31.8-23.28 34.25-24.5 37-24.5L37-24.5Q39.15-24.5 40.92-23.93 42.7-23.35 43.95-22.75L43.95-22.75 42.5-17.5Q41.15-18.4 39.47-19.15 37.8-19.9 36.37-20.33 34.95-20.75 34.25-20.75L34.25-20.75Q32.85-20.75 31.67-19.38 30.5-18 29.82-15.58 29.15-13.15 29.15-10L29.15-10Q29.15-7.1 29.57-5.6 30-4.1 30.95-4.1L30.95-4.1Q31.6-4.1 33.15-5.58 34.7-7.05 36.9-10.5 39.1-13.95 41.55-19.85L41.55-19.85 42.95-15.4Q40.25-9.4 37.8-5.85 35.35-2.3 33.1-0.75 30.85 0.8 28.7 0.8ZM44.15 0.5L40.65 0.5Q39.65 0.5 39.45-0.48 39.25-1.45 39.25-2.55L39.25-2.55Q39.25-3.4 39.47-4.65 39.7-5.9 40.05-7.35 40.4-8.8 40.8-10.2L40.8-10.2 41.9-13.95 40.45-15.25 41.65-22.8Q43.25-23.05 44.47-23.45 45.7-23.85 46.52-24.15 47.35-24.45 47.7-24.45L47.7-24.45Q48.25-24.45 48.25-23.85L48.25-23.85Q48.25-23.6 47.62-21.73 47-19.85 46.27-16.95 45.55-14.05 45.2-10.65L45.2-10.65 44.15 0.5ZM70.65 0.5L67.09 0.5Q66.55 0.5 66.27-0.03 66-0.55 65.92-1.2 65.84-1.85 65.84-2.25L65.84-2.25Q65.84-2.95 65.95-4.05 66.05-5.15 66.2-6.38 66.34-7.6 66.5-8.5L66.5-8.5 67.34-13.7Q67.5-14.7 67.65-15.58 67.8-16.45 67.8-17.45L67.8-17.45Q67.8-18.2 67.5-18.6 67.2-19 66.7-19L66.7-19Q66.05-19 64.55-17.75 63.05-16.5 61.35-14.18 59.65-11.85 58.27-8.6 56.9-5.35 56.5-1.35L56.5-1.35 55.2-8.75Q56.7-13.1 58.57-16.1 60.45-19.1 62.4-20.95 64.34-22.8 66.17-23.65 68-24.5 69.4-24.5L69.4-24.5Q70.9-24.5 71.82-23.95 72.75-23.4 73.17-22.43 73.59-21.45 73.59-20.15L73.59-20.15Q73.59-18.9 73.42-17.68 73.25-16.45 73.05-15.15L73.05-15.15 70.65 0.5ZM52.15 0.7L52.15 0.7Q51.5 0.7 51.17 0.48 50.85 0.25 50.82-0.7 50.8-1.65 51.05-3.75L51.05-3.75 53.4-24.55 56.9-24.55Q57.65-24.55 58.25-23.45 58.85-22.35 58.85-20.95L58.85-20.95Q58.85-20.3 58.47-18.93 58.1-17.55 57.6-16.03 57.1-14.5 56.7-13.35L56.7-13.35 55.4-9.25 57.25-9.55 56.45-1.35Q56.4-0.85 55.85-0.45 55.3-0.05 54.55 0.2 53.8 0.45 53.12 0.58 52.45 0.7 52.15 0.7ZM97.29 0.5L93.74 0.5Q93.19 0.5 92.92-0.03 92.64-0.55 92.57-1.2 92.49-1.85 92.49-2.25L92.49-2.25Q92.49-2.95 92.59-4.05 92.69-5.15 92.84-6.38 92.99-7.6 93.14-8.5L93.14-8.5 93.99-13.7Q94.14-14.7 94.29-15.58 94.44-16.45 94.44-17.45L94.44-17.45Q94.44-18.2 94.14-18.6 93.84-19 93.34-19L93.34-19Q92.69-19 91.19-17.75 89.69-16.5 87.99-14.18 86.29-11.85 84.92-8.6 83.54-5.35 83.14-1.35L83.14-1.35 81.84-8.75Q83.34-13.1 85.22-16.1 87.09-19.1 89.04-20.95 90.99-22.8 92.82-23.65 94.64-24.5 96.04-24.5L96.04-24.5Q97.54-24.5 98.47-23.95 99.39-23.4 99.82-22.43 100.24-21.45 100.24-20.15L100.24-20.15Q100.24-18.9 100.07-17.68 99.89-16.45 99.69-15.15L99.69-15.15 97.29 0.5ZM78.79 0.7L78.79 0.7Q78.14 0.7 77.82 0.48 77.49 0.25 77.47-0.7 77.44-1.65 77.69-3.75L77.69-3.75 80.04-24.55 83.54-24.55Q84.29-24.55 84.89-23.45 85.49-22.35 85.49-20.95L85.49-20.95Q85.49-20.3 85.12-18.93 84.74-17.55 84.24-16.03 83.74-14.5 83.34-13.35L83.34-13.35 82.04-9.25 83.89-9.55 83.09-1.35Q83.04-0.85 82.49-0.45 81.94-0.05 81.19 0.2 80.44 0.45 79.77 0.58 79.09 0.7 78.79 0.7ZM109.84 0.7L106.34 0.7Q105.44 0.7 104.94-0.4 104.44-1.5 104.49-2.95L104.49-2.95Q104.54-4.65 104.79-7 105.04-9.35 105.29-11.65L105.29-11.65 106.69-23.45Q106.99-25.7 106.84-27.45 106.69-29.2 106.44-30.55 106.19-31.9 106.19-32.85L106.19-32.85Q106.19-33.4 107.07-33.83 107.94-34.25 109.09-34.52 110.24-34.8 111.04-34.8L111.04-34.8Q111.89-34.8 112.54-33.58 113.19-32.35 113.19-30.75L113.19-30.75Q113.19-30.4 113.09-28.8 112.99-27.2 112.69-25.15L112.69-25.15 111.09-13.65Q110.59-10.05 110.39-6.48 110.19-2.9 109.84 0.7L109.84 0.7ZM123.59 0.8L123.59 0.8Q119.74 0.8 117.64-1.63 115.54-4.05 115.54-8.3L115.54-8.3Q115.54-11.85 116.54-14.8 117.54-17.75 119.34-19.95 121.14-22.15 123.56-23.35 125.99-24.55 128.84-24.55L128.84-24.55Q132.24-24.55 134.04-23.1 135.84-21.65 135.84-18.95L135.84-18.95Q135.84-16.2 134.01-14.15 132.19-12.1 128.76-10.65 125.34-9.2 120.59-8.2L120.59-8.2 119.94-11.2Q122.69-11.55 124.99-12.4 127.29-13.25 128.69-14.68 130.09-16.1 130.09-18.05L130.09-18.05Q130.09-19.4 129.56-20.1 129.04-20.8 127.69-20.8L127.69-20.8Q125.64-20.8 124.21-19.3 122.79-17.8 122.06-15.4 121.34-13 121.34-10.3L121.34-10.3Q121.34-6.65 122.46-5.43 123.59-4.2 125.79-4.2L125.79-4.2Q128.09-4.2 129.81-4.93 131.54-5.65 132.79-6.45L132.79-6.45Q133.19-6.7 133.49-6.85 133.79-7 133.99-7L133.99-7Q134.24-7 134.39-6.8 134.54-6.6 134.54-6.35L134.54-6.35Q134.54-5.45 133.74-4.25 132.94-3.05 131.46-1.9 129.99-0.75 127.99 0.03 125.99 0.8 123.59 0.8ZM146.24 11.05L146.24 11.05Q143.84 11.05 141.86 10.33 139.89 9.6 138.71 8.05 137.54 6.5 137.54 4L137.54 4Q137.54 3.15 138.09 3.15L138.09 3.15Q138.34 3.15 138.74 3.35 139.14 3.55 139.79 3.9L139.79 3.9Q140.69 4.4 142.21 5.18 143.74 5.95 145.39 6.55 147.04 7.15 148.29 7.15L148.29 7.15Q149.09 7.15 149.81 6.8 150.54 6.45 151.21 5.48 151.89 4.5 152.49 2.68 153.09 0.85 153.64-2.1L153.64-2.1 156.14-15.65 155.24-16.85 155.29-23.25Q158.49-23.65 159.94-24.05 161.39-24.45 161.94-24.45L161.94-24.45Q162.44-24.45 162.44-23.85L162.44-23.85Q162.44-23.6 161.81-21.75 161.19-19.9 160.49-17 159.79-14.1 159.64-10.5L159.64-10.5 159.29-1.5Q159.14 2 157.91 4.4 156.69 6.8 154.74 8.28 152.79 9.75 150.56 10.4 148.34 11.05 146.24 11.05ZM143.09 0.45L143.09 0.45Q140.29 0.45 139.09-1.83 137.89-4.1 137.89-8.2L137.89-8.2Q137.89-11.65 138.94-14.63 139.99-17.6 141.81-19.8 143.64-22 146.06-23.25 148.49-24.5 151.24-24.5L151.24-24.5Q153.39-24.5 155.16-23.93 156.94-23.35 158.19-22.75L158.19-22.75 156.74-17.5Q155.39-18.4 153.71-19.15 152.04-19.9 150.61-20.33 149.19-20.75 148.49-20.75L148.49-20.75Q147.09-20.75 145.96-19.35 144.84-17.95 144.19-15.6 143.54-13.25 143.54-10.35L143.54-10.35Q143.54-7.45 143.96-5.95 144.39-4.45 145.34-4.45L145.34-4.45Q145.99-4.45 147.51-5.85 149.04-7.25 151.19-10.6 153.34-13.95 155.79-19.85L155.79-19.85 157.19-15.4Q154.49-9.4 152.06-5.93 149.64-2.45 147.44-1 145.24 0.45 143.09 0.45ZM171.98 0.8L171.98 0.8Q168.13 0.8 166.03-1.63 163.93-4.05 163.93-8.3L163.93-8.3Q163.93-11.85 164.93-14.8 165.93-17.75 167.73-19.95 169.53-22.15 171.96-23.35 174.38-24.55 177.23-24.55L177.23-24.55Q180.63-24.55 182.43-23.1 184.23-21.65 184.23-18.95L184.23-18.95Q184.23-16.2 182.41-14.15 180.58-12.1 177.16-10.65 173.73-9.2 168.98-8.2L168.98-8.2 168.33-11.2Q171.08-11.55 173.38-12.4 175.68-13.25 177.08-14.68 178.48-16.1 178.48-18.05L178.48-18.05Q178.48-19.4 177.96-20.1 177.43-20.8 176.08-20.8L176.08-20.8Q174.03-20.8 172.61-19.3 171.18-17.8 170.46-15.4 169.73-13 169.73-10.3L169.73-10.3Q169.73-6.65 170.86-5.43 171.98-4.2 174.18-4.2L174.18-4.2Q176.48-4.2 178.21-4.93 179.93-5.65 181.18-6.45L181.18-6.45Q181.58-6.7 181.88-6.85 182.18-7 182.38-7L182.38-7Q182.63-7 182.78-6.8 182.93-6.6 182.93-6.35L182.93-6.35Q182.93-5.45 182.13-4.25 181.33-3.05 179.86-1.9 178.38-0.75 176.38 0.03 174.38 0.8 171.98 0.8ZM197.88 0.7L197.88 0.7Q196.53 0.7 196.53-0.15L196.53-0.15Q196.53-0.55 196.93-1.45L196.93-1.45 211.78-31.4Q212.13-32.15 213.23-32.9 214.33-33.65 215.88-34.18 217.43-34.7 219.08-34.7L219.08-34.7Q219.48-34.7 219.85-34.45 220.23-34.2 220.38-33.25L220.38-33.25Q221.23-27.5 222.43-21.7 223.63-15.9 225.18-10.35L225.18-10.35Q225.88-8 226.38-6.55 226.88-5.1 227.38-4.35L227.38-4.35Q227.93-3.6 228.35-3.13 228.78-2.65 228.78-2.2L228.78-2.2Q228.78-1.7 228.2-1.2 227.63-0.7 226.78-0.3 225.93 0.1 225.03 0.35 224.13 0.6 223.48 0.6L223.48 0.6Q222.38 0.6 221.23-1.38 220.08-3.35 218.98-8.5L218.98-8.5 214.63-29.35 215.58-29.95 205.83-9.45Q205.18-8.05 204.9-7.1 204.63-6.15 204.58-5.38 204.53-4.6 204.38-3.6L204.38-3.6Q204.28-2.65 203.43-1.88 202.58-1.1 201.45-0.53 200.33 0.05 199.33 0.38 198.33 0.7 197.88 0.7ZM222.78-9.5L204.18-9.5 204.18-13.25 222.78-13.25 222.78-9.5ZM251.43 0.5L247.88 0.5Q247.33 0.5 247.05-0.03 246.78-0.55 246.7-1.2 246.63-1.85 246.63-2.25L246.63-2.25Q246.63-2.95 246.73-4.05 246.83-5.15 246.98-6.38 247.13-7.6 247.28-8.5L247.28-8.5 248.13-13.7Q248.28-14.7 248.43-15.58 248.58-16.45 248.58-17.45L248.58-17.45Q248.58-18.2 248.28-18.6 247.98-19 247.48-19L247.48-19Q246.83-19 245.33-17.75 243.83-16.5 242.13-14.18 240.43-11.85 239.05-8.6 237.68-5.35 237.28-1.35L237.28-1.35 235.98-8.75Q237.48-13.1 239.35-16.1 241.23-19.1 243.18-20.95 245.13-22.8 246.95-23.65 248.78-24.5 250.18-24.5L250.18-24.5Q251.68-24.5 252.6-23.95 253.53-23.4 253.95-22.43 254.38-21.45 254.38-20.15L254.38-20.15Q254.38-18.9 254.2-17.68 254.03-16.45 253.83-15.15L253.83-15.15 251.43 0.5ZM232.93 0.7L232.93 0.7Q232.28 0.7 231.95 0.48 231.63 0.25 231.6-0.7 231.58-1.65 231.83-3.75L231.83-3.75 234.18-24.55 237.68-24.55Q238.43-24.55 239.03-23.45 239.63-22.35 239.63-20.95L239.63-20.95Q239.63-20.3 239.25-18.93 238.88-17.55 238.38-16.03 237.88-14.5 237.48-13.35L237.48-13.35 236.18-9.25 238.03-9.55 237.23-1.35Q237.18-0.85 236.63-0.45 236.08-0.05 235.33 0.2 234.58 0.45 233.9 0.58 233.23 0.7 232.93 0.7ZM278.07 0.5L274.52 0.5Q273.97 0.5 273.7-0.03 273.42-0.55 273.35-1.2 273.27-1.85 273.27-2.25L273.27-2.25Q273.27-2.95 273.37-4.05 273.47-5.15 273.62-6.38 273.77-7.6 273.92-8.5L273.92-8.5 274.77-13.7Q274.92-14.7 275.07-15.58 275.22-16.45 275.22-17.45L275.22-17.45Q275.22-18.2 274.92-18.6 274.62-19 274.12-19L274.12-19Q273.47-19 271.97-17.75 270.47-16.5 268.77-14.18 267.07-11.85 265.7-8.6 264.32-5.35 263.92-1.35L263.92-1.35 262.62-8.75Q264.12-13.1 266-16.1 267.87-19.1 269.82-20.95 271.77-22.8 273.6-23.65 275.42-24.5 276.82-24.5L276.82-24.5Q278.32-24.5 279.25-23.95 280.17-23.4 280.6-22.43 281.02-21.45 281.02-20.15L281.02-20.15Q281.02-18.9 280.85-17.68 280.67-16.45 280.47-15.15L280.47-15.15 278.07 0.5ZM259.57 0.7L259.57 0.7Q258.92 0.7 258.6 0.48 258.27 0.25 258.25-0.7 258.22-1.65 258.47-3.75L258.47-3.75 260.82-24.55 264.32-24.55Q265.07-24.55 265.67-23.45 266.27-22.35 266.27-20.95L266.27-20.95Q266.27-20.3 265.9-18.93 265.52-17.55 265.02-16.03 264.52-14.5 264.12-13.35L264.12-13.35 262.82-9.25 264.67-9.55 263.87-1.35Q263.82-0.85 263.27-0.45 262.72-0.05 261.97 0.2 261.22 0.45 260.55 0.58 259.87 0.7 259.57 0.7ZM288.92-13.95L295.52-14.25Q297.47-14.35 297.82-14.35 298.17-14.35 298.22-14.35L298.22-14.35Q298.82-14.35 298.97-14.13 299.12-13.9 299.12-13.5L299.12-13.5Q299.12-12.85 298.8-12.23 298.47-11.6 297.69-11.18 296.92-10.75 295.52-10.7L295.52-10.7 286.57-10.35Q286.52-10.35 286.5-10.35 286.47-10.35 286.42-10.35L286.42-10.35Q285.82-10.35 285.67-10.65 285.52-10.95 285.52-11.45L285.52-11.45Q285.52-12.2 286.3-13.05 287.07-13.9 288.92-13.95L288.92-13.95ZM325.07 0.35L325.07 0.35Q324.07 0.35 322.74-0.93 321.42-2.2 319.94-4.35 318.47-6.5 316.94-9.15 315.42-11.8 313.97-14.55L313.97-14.55Q313.72-15.1 313.44-15.7 313.17-16.3 313.17-17L313.17-17Q313.17-17.85 313.59-19.05 314.02-20.25 315.32-22.1 316.62-23.95 319.32-26.75L319.32-26.75 322.67-30.2Q324.77-32.4 326.54-33.55 328.32-34.7 330.07-34.7L330.07-34.7Q331.62-34.7 332.19-34 332.77-33.3 332.77-32L332.77-32Q332.77-30.8 332.47-29.83 332.17-28.85 331.72-28.3 331.27-27.75 330.77-27.75L330.77-27.75Q330.27-27.75 329.62-27.93 328.97-28.1 328.07-28.1L328.07-28.1Q327.47-28.1 326.72-27.78 325.97-27.45 324.92-26.55 323.87-25.65 322.27-23.8L322.27-23.8 316.82-17.55 317.72-20.9Q319.27-16.7 321.34-13.35 323.42-10 325.27-7.8 327.12-5.6 327.97-4.85L327.97-4.85Q329.12-3.9 329.79-3.53 330.47-3.15 330.77-3 331.07-2.85 331.07-2.45L331.07-2.45Q331.07-2 330.44-1.5 329.82-1 328.87-0.58 327.92-0.15 326.89 0.1 325.87 0.35 325.07 0.35ZM309.67 0.4L306.17 0.4Q305.47 0.4 305.04-0.2 304.62-0.8 304.42-1.75 304.22-2.7 304.22-3.65L304.22-3.65Q304.22-5.7 304.47-7.6 304.72-9.5 304.92-11.7L304.92-11.7 307.32-34.75 310.82-34.75Q312.12-34.75 312.54-33.77 312.97-32.8 312.97-31.45L312.97-31.45Q312.97-30.25 312.87-29.3 312.77-28.35 312.59-27 312.42-25.65 312.17-23.3L312.17-23.3 309.67 0.4ZM339.67-1.2L339.67-1.2 338.46-8.75Q340.31-13.55 342.24-17.07 344.17-20.6 346.17-22.55 348.17-24.5 350.21-24.5L350.21-24.5Q351.37-24.5 351.87-23.78 352.37-23.05 352.37-21.95L352.37-21.95Q352.37-20.95 352.14-20.03 351.92-19.1 351.49-18.5 351.06-17.9 350.46-17.9L350.46-17.9Q349.92-17.9 349.24-18.25 348.56-18.6 347.42-18.6L347.42-18.6Q346.67-18.6 345.51-17.05 344.37-15.5 343.14-12.93 341.92-10.35 340.96-7.28 340.01-4.2 339.67-1.2ZM335.46 0.7L335.46 0.7Q334.81 0.7 334.49 0.48 334.17 0.25 334.14-0.7 334.12-1.65 334.37-3.75L334.37-3.75 336.71-24.55 340.21-24.55Q340.96-24.55 341.56-23.45 342.17-22.35 342.17-20.95L342.17-20.95Q342.17-20.3 341.79-18.93 341.42-17.55 340.92-16.03 340.42-14.5 340.01-13.35L340.01-13.35 338.71-9.25 340.56-9.55 339.67-1.2Q339.62-0.7 339.06-0.33 338.51 0.05 337.79 0.28 337.06 0.5 336.42 0.6 335.76 0.7 335.46 0.7ZM358.51 0.8L355.01 0.8Q354.16 0.8 353.91-0.18 353.66-1.15 353.66-2.2L353.66-2.2Q353.66-4 353.84-5.4 354.01-6.8 354.21-8.5L354.21-8.5 356.01-24.55 359.51-24.55Q360.51-24.55 360.81-23.45 361.11-22.35 361.11-20.95L361.11-20.95Q361.11-20.25 361.01-19.48 360.91-18.7 360.71-17.1L360.71-17.1 359.76-8.95Q359.46-6.35 359.21-4.6 358.96-2.85 358.81-1.6 358.66-0.35 358.51 0.8L358.51 0.8ZM359.41-27.4L359.41-27.4Q358.01-27.4 356.99-28.35 355.96-29.3 355.96-30.85L355.96-30.85Q355.96-32.7 357.16-33.73 358.36-34.75 359.91-34.75L359.91-34.75Q361.36-34.75 362.34-33.9 363.31-33.05 363.31-31.35L363.31-31.35Q363.31-29.65 362.16-28.53 361.01-27.4 359.41-27.4ZM371.51 0.8L371.51 0.8Q367.71 0.8 365.54-0.38 363.36-1.55 363.36-3.55L363.36-3.55Q363.36-4.45 363.64-5.23 363.91-6 364.46-6L364.46-6Q364.66-6 364.91-5.9 365.16-5.8 365.86-5.35L365.86-5.35Q366.86-4.7 368.09-4.15 369.31-3.6 370.59-3.28 371.86-2.95 372.96-2.95L372.96-2.95Q374.56-2.95 375.29-3.73 376.01-4.5 376.01-5.8L376.01-5.8Q376.01-6.75 375.44-7.38 374.86-8 373.61-8.8L373.61-8.8 370.51-10.8Q368.56-12.05 367.24-13.48 365.91-14.9 365.91-17.2L365.91-17.2Q365.91-20.45 368.41-22.48 370.91-24.5 375.46-24.5L375.46-24.5Q378.66-24.5 380.16-23.85 381.66-23.2 381.66-21.6L381.66-21.6Q381.66-20.35 381.29-19.5 380.91-18.65 380.26-18.65L380.26-18.65Q380.06-18.65 379.74-18.75 379.41-18.85 379.16-19L379.16-19Q378.76-19.25 377.91-19.7 377.06-20.15 376.01-20.53 374.96-20.9 373.81-20.9L373.81-20.9Q372.66-20.9 371.94-20.23 371.21-19.55 371.21-18.4L371.21-18.4Q371.21-17.45 371.81-16.8 372.41-16.15 373.81-15.45L373.81-15.45 377.06-13.95Q379.11-13 380.39-11.73 381.66-10.45 381.66-7.95L381.66-7.95Q381.66-5 380.24-3.05 378.81-1.1 376.49-0.15 374.16 0.8 371.51 0.8ZM389.96 0.8L389.96 0.8Q387.56 0.8 386.58-0.6 385.61-2 385.96-5L385.96-5 387.91-20.25 386.31-20.25Q385.56-20.25 385.56-21.05L385.56-21.05Q385.56-21.55 386.23-22.5 386.91-23.45 387.96-24.6 389.01-25.75 390.13-26.8 391.26-27.85 392.21-28.53 393.16-29.2 393.66-29.2L393.66-29.2Q394.21-29.2 394.41-28.78 394.61-28.35 394.51-27.7L394.51-27.7 394.06-23.75 399.66-23.75Q400.41-23.75 400.53-23.5 400.66-23.25 400.46-22.7L400.46-22.7Q399.86-21 399.33-20.63 398.81-20.25 397.41-20.25L397.41-20.25 393.41-20.25 392.16-9.55Q392.06-8.6 391.98-7.75 391.91-6.9 391.91-6.2L391.91-6.2Q391.91-5.05 392.46-4.58 393.01-4.1 394.26-4.1L394.26-4.1Q395.46-4.1 396.33-4.6 397.21-5.1 397.56-5.1L397.56-5.1Q397.96-5.1 397.96-4.6L397.96-4.6Q397.96-4.1 397.43-3.2 396.91-2.3 395.88-1.38 394.86-0.45 393.36 0.18 391.86 0.8 389.96 0.8ZM407.06 0.8L403.56 0.8Q402.71 0.8 402.46-0.18 402.21-1.15 402.21-2.2L402.21-2.2Q402.21-4 402.38-5.4 402.56-6.8 402.76-8.5L402.76-8.5 404.56-24.55 408.06-24.55Q409.06-24.55 409.36-23.45 409.66-22.35 409.66-20.95L409.66-20.95Q409.66-20.25 409.56-19.48 409.46-18.7 409.26-17.1L409.26-17.1 408.31-8.95Q408.01-6.35 407.76-4.6 407.51-2.85 407.36-1.6 407.21-0.35 407.06 0.8L407.06 0.8ZM407.96-27.4L407.96-27.4Q406.56-27.4 405.53-28.35 404.51-29.3 404.51-30.85L404.51-30.85Q404.51-32.7 405.71-33.73 406.91-34.75 408.46-34.75L408.46-34.75Q409.91-34.75 410.88-33.9 411.86-33.05 411.86-31.35L411.86-31.35Q411.86-29.65 410.71-28.53 409.56-27.4 407.96-27.4ZM433.4 0.5L429.85 0.5Q429.3 0.5 429.03-0.03 428.75-0.55 428.68-1.2 428.6-1.85 428.6-2.25L428.6-2.25Q428.6-2.95 428.7-4.05 428.8-5.15 428.95-6.38 429.1-7.6 429.25-8.5L429.25-8.5 430.1-13.7Q430.25-14.7 430.4-15.58 430.55-16.45 430.55-17.45L430.55-17.45Q430.55-18.2 430.25-18.6 429.95-19 429.45-19L429.45-19Q428.8-19 427.3-17.75 425.8-16.5 424.1-14.18 422.4-11.85 421.03-8.6 419.65-5.35 419.25-1.35L419.25-1.35 417.95-8.75Q419.45-13.1 421.33-16.1 423.2-19.1 425.15-20.95 427.1-22.8 428.93-23.65 430.75-24.5 432.15-24.5L432.15-24.5Q433.65-24.5 434.58-23.95 435.5-23.4 435.93-22.43 436.35-21.45 436.35-20.15L436.35-20.15Q436.35-18.9 436.18-17.68 436-16.45 435.8-15.15L435.8-15.15 433.4 0.5ZM414.9 0.7L414.9 0.7Q414.25 0.7 413.93 0.48 413.6 0.25 413.58-0.7 413.55-1.65 413.8-3.75L413.8-3.75 416.15-24.55 419.65-24.55Q420.4-24.55 421-23.45 421.6-22.35 421.6-20.95L421.6-20.95Q421.6-20.3 421.23-18.93 420.85-17.55 420.35-16.03 419.85-14.5 419.45-13.35L419.45-13.35 418.15-9.25 420-9.55 419.2-1.35Q419.15-0.85 418.6-0.45 418.05-0.05 417.3 0.2 416.55 0.45 415.88 0.58 415.2 0.7 414.9 0.7ZM455.3 0.6L455.3 0.6Q454.4 0.6 453.92-0.5 453.45-1.6 453.45-2.95L453.45-2.95Q453.45-4.9 453.9-9.3L453.9-9.3 456.4-34 464.1-34Q467.65-34 469.72-34.13 471.8-34.25 472.87-34.38 473.95-34.5 474.45-34.5L474.45-34.5Q475-34.5 475.22-34.33 475.45-34.15 475.45-33.4L475.45-33.4Q475.45-32.5 475.1-31.45 474.75-30.4 474.17-29.65 473.6-28.9 472.85-28.9L472.85-28.9Q472.35-28.9 471.2-29.05 470.05-29.2 468.6-29.4L468.6-29.4 462.1-30.25 459.85-7.95Q459.75-6.9 459.75-5.85 459.75-4.8 459.9-3.75L459.9-3.75 470.6-5.85Q471.5-6.05 472.12-6.18 472.75-6.3 472.95-6.3L472.95-6.3Q473.55-6.3 473.55-5.6L473.55-5.6Q473.55-4.35 473.12-3.05 472.7-1.75 471.95-0.88 471.2 0 470.1 0L470.1 0 468.6 0Q463 0 459.8 0.3 456.6 0.6 455.3 0.6ZM464.25-15.85L457.85-15.75 458.5-19.6 460.9-19.6Q463.05-19.6 464.95-19.75 466.85-19.9 468.15-20.05 469.45-20.2 469.8-20.2L469.8-20.2Q470.2-20.2 470.4-19.98 470.6-19.75 470.6-19.35L470.6-19.35Q470.6-18.6 469.6-17.8 468.6-17 467.12-16.45 465.65-15.9 464.25-15.85L464.25-15.85ZM496.9 0.5L493.35 0.5Q492.8 0.5 492.52-0.03 492.25-0.55 492.17-1.2 492.1-1.85 492.1-2.25L492.1-2.25Q492.1-2.95 492.2-4.05 492.3-5.15 492.45-6.38 492.6-7.6 492.75-8.5L492.75-8.5 493.6-13.7Q493.75-14.7 493.9-15.58 494.05-16.45 494.05-17.45L494.05-17.45Q494.05-18.2 493.75-18.6 493.45-19 492.95-19L492.95-19Q492.3-19 490.8-17.75 489.3-16.5 487.6-14.18 485.9-11.85 484.52-8.6 483.15-5.35 482.75-1.35L482.75-1.35 481.45-8.75Q482.95-13.1 484.82-16.1 486.7-19.1 488.65-20.95 490.6-22.8 492.42-23.65 494.25-24.5 495.65-24.5L495.65-24.5Q497.15-24.5 498.07-23.95 499-23.4 499.42-22.43 499.85-21.45 499.85-20.15L499.85-20.15Q499.85-18.9 499.67-17.68 499.5-16.45 499.3-15.15L499.3-15.15 496.9 0.5ZM478.4 0.7L478.4 0.7Q477.75 0.7 477.42 0.48 477.1 0.25 477.07-0.7 477.05-1.65 477.3-3.75L477.3-3.75 479.65-24.55 483.15-24.55Q483.9-24.55 484.5-23.45 485.1-22.35 485.1-20.95L485.1-20.95Q485.1-20.3 484.72-18.93 484.35-17.55 483.85-16.03 483.35-14.5 482.95-13.35L482.95-13.35 481.65-9.25 483.5-9.55 482.7-1.35Q482.65-0.85 482.1-0.45 481.55-0.05 480.8 0.2 480.05 0.45 479.37 0.58 478.7 0.7 478.4 0.7ZM511.49 11.05L511.49 11.05Q509.09 11.05 507.12 10.33 505.14 9.6 503.97 8.05 502.79 6.5 502.79 4L502.79 4Q502.79 3.15 503.34 3.15L503.34 3.15Q503.59 3.15 503.99 3.35 504.39 3.55 505.04 3.9L505.04 3.9Q505.94 4.4 507.47 5.18 508.99 5.95 510.64 6.55 512.29 7.15 513.54 7.15L513.54 7.15Q514.34 7.15 515.07 6.8 515.79 6.45 516.47 5.48 517.14 4.5 517.74 2.68 518.34 0.85 518.89-2.1L518.89-2.1 521.39-15.65 520.49-16.85 520.54-23.25Q523.74-23.65 525.19-24.05 526.64-24.45 527.19-24.45L527.19-24.45Q527.69-24.45 527.69-23.85L527.69-23.85Q527.69-23.6 527.07-21.75 526.44-19.9 525.74-17 525.04-14.1 524.89-10.5L524.89-10.5 524.54-1.5Q524.39 2 523.17 4.4 521.94 6.8 519.99 8.28 518.04 9.75 515.82 10.4 513.59 11.05 511.49 11.05ZM508.34 0.45L508.34 0.45Q505.54 0.45 504.34-1.83 503.14-4.1 503.14-8.2L503.14-8.2Q503.14-11.65 504.19-14.63 505.24-17.6 507.07-19.8 508.89-22 511.32-23.25 513.74-24.5 516.49-24.5L516.49-24.5Q518.64-24.5 520.42-23.93 522.19-23.35 523.44-22.75L523.44-22.75 521.99-17.5Q520.64-18.4 518.97-19.15 517.29-19.9 515.87-20.33 514.44-20.75 513.74-20.75L513.74-20.75Q512.34-20.75 511.22-19.35 510.09-17.95 509.44-15.6 508.79-13.25 508.79-10.35L508.79-10.35Q508.79-7.45 509.22-5.95 509.64-4.45 510.59-4.45L510.59-4.45Q511.24-4.45 512.77-5.85 514.29-7.25 516.44-10.6 518.59-13.95 521.04-19.85L521.04-19.85 522.44-15.4Q519.74-9.4 517.32-5.93 514.89-2.45 512.69-1 510.49 0.45 508.34 0.45ZM537.24 0.8L537.24 0.8Q533.39 0.8 531.29-1.63 529.19-4.05 529.19-8.3L529.19-8.3Q529.19-11.85 530.19-14.8 531.19-17.75 532.99-19.95 534.79-22.15 537.21-23.35 539.64-24.55 542.49-24.55L542.49-24.55Q545.89-24.55 547.69-23.1 549.49-21.65 549.49-18.95L549.49-18.95Q549.49-16.2 547.66-14.15 545.84-12.1 542.41-10.65 538.99-9.2 534.24-8.2L534.24-8.2 533.59-11.2Q536.34-11.55 538.64-12.4 540.94-13.25 542.34-14.68 543.74-16.1 543.74-18.05L543.74-18.05Q543.74-19.4 543.21-20.1 542.69-20.8 541.34-20.8L541.34-20.8Q539.29-20.8 537.86-19.3 536.44-17.8 535.71-15.4 534.99-13 534.99-10.3L534.99-10.3Q534.99-6.65 536.11-5.43 537.24-4.2 539.44-4.2L539.44-4.2Q541.74-4.2 543.46-4.93 545.19-5.65 546.44-6.45L546.44-6.45Q546.84-6.7 547.14-6.85 547.44-7 547.64-7L547.64-7Q547.89-7 548.04-6.8 548.19-6.6 548.19-6.35L548.19-6.35Q548.19-5.45 547.39-4.25 546.59-3.05 545.11-1.9 543.64-0.75 541.64 0.03 539.64 0.8 537.24 0.8ZM571.94 0.5L568.39 0.5Q567.84 0.5 567.56-0.03 567.29-0.55 567.21-1.2 567.14-1.85 567.14-2.25L567.14-2.25Q567.14-2.95 567.24-4.05 567.34-5.15 567.49-6.38 567.64-7.6 567.79-8.5L567.79-8.5 568.64-13.7Q568.79-14.7 568.94-15.58 569.09-16.45 569.09-17.45L569.09-17.45Q569.09-18.2 568.79-18.6 568.49-19 567.99-19L567.99-19Q567.34-19 565.84-17.75 564.34-16.5 562.64-14.18 560.94-11.85 559.56-8.6 558.19-5.35 557.79-1.35L557.79-1.35 556.49-8.75Q557.99-13.1 559.86-16.1 561.74-19.1 563.69-20.95 565.64-22.8 567.46-23.65 569.29-24.5 570.69-24.5L570.69-24.5Q572.19-24.5 573.11-23.95 574.04-23.4 574.46-22.43 574.89-21.45 574.89-20.15L574.89-20.15Q574.89-18.9 574.71-17.68 574.54-16.45 574.34-15.15L574.34-15.15 571.94 0.5ZM553.44 0.7L553.44 0.7Q552.79 0.7 552.46 0.48 552.14 0.25 552.11-0.7 552.09-1.65 552.34-3.75L552.34-3.75 554.69-24.55 558.19-24.55Q558.94-24.55 559.54-23.45 560.14-22.35 560.14-20.95L560.14-20.95Q560.14-20.3 559.76-18.93 559.39-17.55 558.89-16.03 558.39-14.5 557.99-13.35L557.99-13.35 556.69-9.25 558.54-9.55 557.74-1.35Q557.69-0.85 557.14-0.45 556.59-0.05 555.84 0.2 555.09 0.45 554.41 0.58 553.74 0.7 553.44 0.7ZM589.78 0.7L589.78 0.7Q588.43 0.7 588.43-0.15L588.43-0.15Q588.43-0.55 588.83-1.45L588.83-1.45 603.68-31.4Q604.03-32.15 605.13-32.9 606.23-33.65 607.78-34.18 609.33-34.7 610.98-34.7L610.98-34.7Q611.38-34.7 611.76-34.45 612.13-34.2 612.28-33.25L612.28-33.25Q613.13-27.5 614.33-21.7 615.53-15.9 617.08-10.35L617.08-10.35Q617.78-8 618.28-6.55 618.78-5.1 619.28-4.35L619.28-4.35Q619.83-3.6 620.26-3.13 620.68-2.65 620.68-2.2L620.68-2.2Q620.68-1.7 620.11-1.2 619.53-0.7 618.68-0.3 617.83 0.1 616.93 0.35 616.03 0.6 615.38 0.6L615.38 0.6Q614.28 0.6 613.13-1.38 611.98-3.35 610.88-8.5L610.88-8.5 606.53-29.35 607.48-29.95 597.73-9.45Q597.08-8.05 596.81-7.1 596.53-6.15 596.48-5.38 596.43-4.6 596.28-3.6L596.28-3.6Q596.18-2.65 595.33-1.88 594.48-1.1 593.36-0.53 592.23 0.05 591.23 0.38 590.23 0.7 589.78 0.7ZM614.68-9.5L596.08-9.5 596.08-13.25 614.68-13.25 614.68-9.5ZM632.03 0.65L632.03 0.65Q627.78 0.65 625.13-0.7 622.48-2.05 622.48-4.2L622.48-4.2Q622.48-5.85 622.73-6.55 622.98-7.25 623.58-7.25L623.58-7.25Q623.98-7.25 624.83-6.65 625.68-6.05 626.9-5.3 628.13-4.55 629.65-3.95 631.18-3.35 632.98-3.35L632.98-3.35Q635.58-3.35 637.2-4.48 638.83-5.6 638.83-7.95L638.83-7.95Q638.83-10.2 637.78-11.35 636.73-12.5 634.63-13.85L634.63-13.85 631.48-15.85Q629.78-16.95 628.38-18.1 626.98-19.25 626.13-20.88 625.28-22.5 625.28-25L625.28-25Q625.28-28.1 626.88-30.3 628.48-32.5 631.28-33.65 634.08-34.8 637.68-34.8L637.68-34.8Q641.03-34.8 642.68-34.38 644.33-33.95 644.85-33.2 645.38-32.45 645.38-31.45L645.38-31.45Q645.38-30.05 644.98-29.33 644.58-28.6 644.13-28.6L644.13-28.6Q643.73-28.6 643.23-28.85 642.73-29.1 641.83-29.5L641.83-29.5Q641.13-29.85 639.6-30.33 638.08-30.8 636.43-30.8L636.43-30.8Q634.28-30.8 632.8-29.7 631.33-28.6 631.33-26.4L631.33-26.4Q631.33-24.35 632.43-23.18 633.53-22 635.38-21.1L635.38-21.1 638.13-19.8Q640.08-18.9 641.75-17.8 643.43-16.7 644.45-14.98 645.48-13.25 645.48-10.4L645.48-10.4Q645.48-5.1 641.83-2.23 638.18 0.65 632.03 0.65Z" opacity="1" transform="matrix(1,0,0,1,0,0)" fill="#000000" class="wordmark-text-0" data-fill-palette-color="primary" id="text-0"></path></svg></g></svg></g></svg></g></svg></g><g><svg viewBox="0 0 62.90160457340684 73.81179626613763" height="73.81179626613763" width="62.90160457340684"><g><svg xmlns="http://www.w3.org/2000/svg" xmlns:xlink="http://www.w3.org/1999/xlink" version="1.0" x="0" y="0" viewBox="1.1970982056690094 8.292945284715056 70.34058304247895 82.54105471528494" enable-background="new -12.573 0.418 98 98" xml:space="preserve" height="73.81179626613763" width="62.90160457340684" class="icon-icon-0" data-fill-palette-color="accent" id="icon-0"><path d="M60.809 9.303C47.474 5.792 47.125 12.505 36.189 13.217 25.254 12.505 24.905 5.792 11.57 9.303-13.371 15.869 13.333 90.834 22.448 90.834S26.615 68.379 37.345 68.379 44.459 90.834 52.463 90.834 85.75 15.869 60.809 9.303M9.792 17.082C12.701 12.86 17.023 13.625 18.347 13.627 20.712 13.644 22.001 14.249 24.362 15.344 26.803 16.497 30.009 17.98 34.705 18.456A9.5 9.5 0 0 1 33.712 20.549C30.853 25.274 23.041 28.687 13.735 28.646 12.086 28.648 9.768 28.544 8.062 28.335 7.4 23.398 8.421 19.069 9.792 17.082" fill="#000000" data-fill-palette-color="accent"></path></svg></g></svg></g></svg></g><defs></defs></svg><rect width="395.52" height="62.77242015623249" fill="none" stroke="none" visibility="hidden"></rect></g></svg></g></svg>