<svg width="26" height="25" viewBox="0 0 26 25" fill="none" xmlns="http://www.w3.org/2000/svg">
<g id="Star 1">
<path id="Star 1_2" d="M12.9773 1.4568C13.1263 0.998264 13.775 0.998265 13.924 1.4568L16.1454 8.29338C16.212 8.49845 16.4031 8.63729 16.6187 8.63729H23.8071C24.2893 8.63729 24.4897 9.25425 24.0997 9.53764L18.2841 13.7629C18.1097 13.8896 18.0367 14.1143 18.1033 14.3193L20.3247 21.1559C20.4736 21.6144 19.9488 21.9958 19.5588 21.7124L13.7432 17.4871C13.5688 17.3604 13.3326 17.3604 13.1581 17.4871L7.3426 21.7124C6.95254 21.9958 6.42772 21.6144 6.57671 21.1559L8.79805 14.3193C8.86468 14.1143 8.79169 13.8896 8.61725 13.7629L2.80171 9.53764C2.41165 9.25425 2.61211 8.63729 3.09425 8.63729H10.2827C10.4983 8.63729 10.6894 8.49845 10.756 8.29338L12.9773 1.4568Z" fill="#FFCC33"/>
</g>
</svg>
