<svg width="40" height="40" viewBox="0 0 40 40" fill="none" xmlns="http://www.w3.org/2000/svg">
<g id="heroicons-solid:x">
<path id="Vector" fill-rule="evenodd" clip-rule="evenodd" d="M8.58606 8.58599C8.96112 8.21105 9.46973 8.00042 10.0001 8.00042C10.5304 8.00042 11.039 8.21105 11.4141 8.58599L20.0001 17.172L28.5861 8.58599C28.7706 8.39497 28.9912 8.24261 29.2353 8.13779C29.4793 8.03297 29.7417 7.9778 30.0073 7.97549C30.2728 7.97319 30.5362 8.02379 30.782 8.12435C31.0278 8.22491 31.2511 8.37342 31.4388 8.5612C31.6266 8.74899 31.7751 8.97229 31.8757 9.21809C31.9763 9.46388 32.0269 9.72724 32.0246 9.9928C32.0223 10.2584 31.9671 10.5208 31.8623 10.7648C31.7574 11.0088 31.6051 11.2295 31.4141 11.414L22.8281 20L31.4141 28.586C31.7784 28.9632 31.98 29.4684 31.9754 29.9928C31.9709 30.5172 31.7605 31.0188 31.3897 31.3896C31.0189 31.7604 30.5173 31.9708 29.9929 31.9753C29.4685 31.9799 28.9633 31.7783 28.5861 31.414L20.0001 22.828L11.4141 31.414C11.0369 31.7783 10.5317 31.9799 10.0073 31.9753C9.48286 31.9708 8.98124 31.7604 8.61042 31.3896C8.23961 31.0188 8.02927 30.5172 8.02471 29.9928C8.02016 29.4684 8.22175 28.9632 8.58606 28.586L17.1721 20L8.58606 11.414C8.21112 11.0389 8.00049 10.5303 8.00049 9.99999C8.00049 9.46967 8.21112 8.96105 8.58606 8.58599Z" fill="#00B8FF"/>
</g>
</svg>
